<svg width="80" height="80" viewBox="0 0 80 80" fill="none" xmlns="http://www.w3.org/2000/svg">
<circle cx="40" cy="40" r="40" fill="url(#paint0_linear)"/>
<path d="M19.1242 64V54.2H21.1542V62.208H26.5162V64H19.1242ZM34.0128 63.09C33.5648 63.454 33.1028 63.72 32.6268 63.888C32.1601 64.056 31.6374 64.14 31.0588 64.14C30.5081 64.14 29.9901 64.042 29.5048 63.846C29.0288 63.65 28.6134 63.384 28.2588 63.048C27.9134 62.712 27.6381 62.3153 27.4328 61.858C27.2368 61.3913 27.1388 60.892 27.1388 60.36C27.1388 59.8373 27.2321 59.3473 27.4188 58.89C27.6148 58.4233 27.8808 58.022 28.2168 57.686C28.5528 57.3407 28.9494 57.07 29.4068 56.874C29.8734 56.678 30.3681 56.58 30.8908 56.58C31.4041 56.58 31.8801 56.6827 32.3188 56.888C32.7668 57.084 33.1494 57.3547 33.4668 57.7C33.7934 58.0453 34.0454 58.4607 34.2228 58.946C34.4094 59.422 34.5028 59.94 34.5028 60.5V61.004H29.0708C29.2014 61.4613 29.4534 61.83 29.8268 62.11C30.2001 62.39 30.6388 62.53 31.1428 62.53C31.4601 62.53 31.7588 62.4787 32.0388 62.376C32.3188 62.2733 32.5568 62.1287 32.7528 61.942L34.0128 63.09ZM30.8488 58.162C30.4101 58.162 30.0321 58.2973 29.7148 58.568C29.3974 58.8293 29.1781 59.184 29.0568 59.632H32.6268C32.5054 59.2027 32.2814 58.8527 31.9548 58.582C31.6374 58.302 31.2688 58.162 30.8488 58.162ZM39.3026 62.46C39.6292 62.46 39.9326 62.3947 40.2126 62.264C40.5019 62.1333 40.7772 61.928 41.0386 61.648L42.1866 62.838C41.8132 63.2487 41.3652 63.5707 40.8426 63.804C40.3199 64.028 39.7786 64.14 39.2186 64.14C38.6866 64.14 38.1826 64.042 37.7066 63.846C37.2399 63.65 36.8339 63.384 36.4886 63.048C36.1526 62.712 35.8866 62.3153 35.6906 61.858C35.4946 61.3913 35.3966 60.892 35.3966 60.36C35.3966 59.828 35.4946 59.3333 35.6906 58.876C35.8866 58.4093 36.1526 58.008 36.4886 57.672C36.8339 57.3267 37.2399 57.056 37.7066 56.86C38.1826 56.664 38.6866 56.566 39.2186 56.566C39.7972 56.566 40.3526 56.6827 40.8846 56.916C41.4166 57.14 41.8692 57.4573 42.2426 57.868L41.0666 59.114C40.8052 58.8247 40.5252 58.6053 40.2266 58.456C39.9279 58.3067 39.6059 58.232 39.2606 58.232C38.7099 58.232 38.2432 58.4373 37.8606 58.848C37.4872 59.2587 37.3006 59.7627 37.3006 60.36C37.3006 60.9573 37.4919 61.4567 37.8746 61.858C38.2666 62.2593 38.7426 62.46 39.3026 62.46ZM44.3145 61.942V58.316H42.8165V56.706H44.3145V54.844L46.2325 54.41V56.706H48.3045V58.316H46.2325V61.55C46.2325 61.8953 46.3071 62.138 46.4565 62.278C46.6058 62.418 46.8671 62.488 47.2405 62.488C47.4178 62.488 47.5858 62.4787 47.7445 62.46C47.9031 62.432 48.0758 62.3853 48.2625 62.32V63.888C48.0571 63.9533 47.8098 64.0047 47.5205 64.042C47.2311 64.0887 46.9838 64.112 46.7785 64.112C45.9665 64.112 45.3505 63.93 44.9305 63.566C44.5198 63.1927 44.3145 62.6513 44.3145 61.942ZM48.8497 60.36C48.8497 59.828 48.9477 59.3333 49.1437 58.876C49.349 58.4093 49.6244 58.008 49.9697 57.672C50.3244 57.3267 50.7397 57.056 51.2157 56.86C51.6917 56.664 52.2004 56.566 52.7417 56.566C53.283 56.566 53.7917 56.664 54.2677 56.86C54.7437 57.056 55.1544 57.3267 55.4997 57.672C55.8544 58.008 56.1297 58.4093 56.3257 58.876C56.531 59.3333 56.6337 59.828 56.6337 60.36C56.6337 60.892 56.531 61.3913 56.3257 61.858C56.1297 62.3153 55.8544 62.712 55.4997 63.048C55.1544 63.384 54.7437 63.65 54.2677 63.846C53.7917 64.042 53.283 64.14 52.7417 64.14C52.2004 64.14 51.6917 64.042 51.2157 63.846C50.7397 63.65 50.3244 63.384 49.9697 63.048C49.6244 62.712 49.349 62.3153 49.1437 61.858C48.9477 61.3913 48.8497 60.892 48.8497 60.36ZM52.7417 62.474C53.3017 62.474 53.7777 62.2687 54.1697 61.858C54.5617 61.4473 54.7577 60.948 54.7577 60.36C54.7577 59.7627 54.5617 59.2587 54.1697 58.848C53.7777 58.4373 53.3017 58.232 52.7417 58.232C52.1817 58.232 51.7057 58.4373 51.3137 58.848C50.9217 59.2587 50.7257 59.7627 50.7257 60.36C50.7257 60.948 50.9217 61.4473 51.3137 61.858C51.7057 62.2687 52.1817 62.474 52.7417 62.474ZM57.8126 64V56.706H59.7306V57.504C59.964 57.1867 60.244 56.9487 60.5706 56.79C60.9066 56.622 61.2753 56.538 61.6766 56.538C61.8633 56.5473 62.0173 56.566 62.1386 56.594C62.2693 56.6127 62.3813 56.65 62.4746 56.706V58.386C62.3346 58.3207 62.1806 58.274 62.0126 58.246C61.8446 58.2087 61.672 58.19 61.4946 58.19C61.1213 58.19 60.776 58.2833 60.4586 58.47C60.1506 58.6567 59.908 58.9273 59.7306 59.282V64H57.8126Z" fill="black"/>
<path d="M20 17.5C20 14.4624 22.4624 12 25.5 12H28.5C29.3284 12 30 12.6716 30 13.5C30 14.3284 29.3284 15 28.5 15H25.5C24.1193 15 23 16.1193 23 17.5V20.5C23 21.3284 22.3284 22 21.5 22C20.6716 22 20 21.3284 20 20.5V17.5ZM50 13.5C50 12.6716 50.6716 12 51.5 12H54.5C57.5376 12 60 14.4624 60 17.5V20.5C60 21.3284 59.3284 22 58.5 22C57.6716 22 57 21.3284 57 20.5V17.5C57 16.1193 55.8808 15 54.5 15H51.5C50.6716 15 50 14.3284 50 13.5ZM21.5 38C22.3284 38 23 38.6716 23 39.5V42.5C23 43.8808 24.1193 45 25.5 45H28.5C29.3284 45 30 45.6716 30 46.5C30 47.3284 29.3284 48 28.5 48H25.5C22.4624 48 20 45.5376 20 42.5V39.5C20 38.6716 20.6716 38 21.5 38ZM58.5 38C59.3284 38 60 38.6716 60 39.5V42.5C60 45.5376 57.5376 48 54.5 48H51.5C50.6716 48 50 47.3284 50 46.5C50 45.6716 50.6716 45 51.5 45H54.5C55.8808 45 57 43.8808 57 42.5V39.5C57 38.6716 57.6716 38 58.5 38ZM27.5 20C28.3284 20 29 20.6716 29 21.5V38.5C29 39.3284 28.3284 40 27.5 40C26.6716 40 26 39.3284 26 38.5V21.5C26 20.6716 26.6716 20 27.5 20ZM37 21.5C37 20.6716 36.3284 20 35.5 20C34.6716 20 34 20.6716 34 21.5V38.5C34 39.3284 34.6716 40 35.5 40C36.3284 40 37 39.3284 37 38.5V21.5ZM43.5 20C44.3284 20 45 20.6716 45 21.5V38.5C45 39.3284 44.3284 40 43.5 40C42.6716 40 42 39.3284 42 38.5V21.5C42 20.6716 42.6716 20 43.5 20ZM53 21.5C53 20.6716 52.3284 20 51.5 20C50.6716 20 50 20.6716 50 21.5V38.5C50 39.3284 50.6716 40 51.5 40C52.3284 40 53 39.3284 53 38.5V21.5Z" fill="black"/>
<defs>
<linearGradient id="paint0_linear" x1="0" y1="40" x2="80" y2="40" gradientUnits="userSpaceOnUse">
<stop stop-color="#F3CA4E"/>
<stop offset="0.255208" stop-color="#FFFBD1"/>
<stop offset="0.489583" stop-color="#BB9342"/>
<stop offset="0.760417" stop-color="#FFFBD1"/>
<stop offset="1" stop-color="#EAD692"/>
</linearGradient>
</defs>
</svg>
