<?xml version="1.0" encoding="utf-8"?>
<!-- Generator: Adobe Illustrator 22.1.0, SVG Export Plug-In . SVG Version: 6.00 Build 0)  -->
<svg version="1.1" id="Layer_1" xmlns="http://www.w3.org/2000/svg" xmlns:xlink="http://www.w3.org/1999/xlink" x="0px" y="0px"
	 viewBox="0 0 161.2 72.2" style="enable-background:new 0 0 161.2 72.2;" xml:space="preserve">
<style type="text/css">
	.st0{fill:#FFFFFF;}
	.st1{fill:#C10230;}
</style>
<g>
	<g>
		<path class="st0" d="M19.9,60.6c-1.8,0-3.3-0.2-4.7-0.7c-1.3-0.5-2.5-1.3-3.6-2.4l2.4-2.3c0.8,0.8,1.7,1.4,2.7,1.7
			c1,0.3,2.1,0.5,3.3,0.5c1.5,0,2.7-0.3,3.6-0.9c0.8-0.6,1.3-1.5,1.3-2.6c0-1.1-0.2-1.8-0.7-2.2c-0.4-0.4-0.9-0.7-1.2-0.8
			c-0.4-0.2-0.9-0.3-1.6-0.4L18.6,50c-1.9-0.3-3.4-0.9-4.5-1.9c-1.1-1-1.6-2.5-1.6-4.4c0-2.1,0.7-3.7,2.1-5c1.4-1.3,3.3-1.9,5.7-1.9
			c2.9,0,5.4,0.9,7.3,2.7l-2.3,2.2c-0.7-0.7-1.4-1.1-2.3-1.4c-0.8-0.3-1.8-0.4-2.8-0.4c-1.3,0-2.4,0.3-3.1,1
			c-0.8,0.7-1.1,1.6-1.1,2.6c0,0.9,0.3,1.6,0.9,2.2c0.6,0.5,1.5,0.9,2.6,1.1l2.7,0.4c1.1,0.2,1.9,0.4,2.6,0.6
			c0.7,0.3,1.4,0.8,2.3,1.6c0.9,0.8,1.3,2.2,1.3,4.3c0,2.1-0.8,3.8-2.3,5C24.5,60,22.4,60.6,19.9,60.6z"/>
		<path class="st0" d="M37.9,60.6c-2.1,0-3.9-0.7-5.3-2.1c-1.4-1.4-2.1-3.5-2.1-6.5c0-2.9,0.7-5.1,2.1-6.4c1.4-1.4,3.2-2.1,5.3-2.1
			c1.2,0,2.2,0.2,3,0.5c0.8,0.4,1.7,1,2.5,1.8l-2.3,2.2c-1-1.1-2-1.6-3.2-1.6c-1.3,0-2.3,0.5-3,1.4c-0.7,0.9-1.1,2.3-1.1,4.2
			c0,1.9,0.3,3.3,1.1,4.2c0.7,0.9,1.7,1.4,3,1.4c0.7,0,1.2-0.1,1.7-0.3c0.4-0.2,0.9-0.6,1.5-1.2l2.3,2.2
			C41.9,59.8,40.1,60.6,37.9,60.6z"/>
		<path class="st0" d="M56.1,60.4V50.2c0-1.2-0.3-2.1-0.9-2.7c-0.6-0.6-1.4-0.9-2.4-0.9c-1,0-1.8,0.3-2.4,0.9c-0.6,0.6-1,1.5-1,2.7
			v10.2H46V37h3.3v8.4c1.2-1.2,2.6-1.9,4.3-1.9c1.8,0,3.2,0.6,4.3,1.7c1,1.1,1.5,2.6,1.5,4.5v10.8H56.1z"/>
		<path class="st0" d="M72.2,60.4v-1.5c-0.6,0.6-1.3,1.1-1.9,1.3c-0.6,0.2-1.5,0.4-2.5,0.4c-2,0-3.4-0.5-4.4-1.4
			c-0.9-1-1.4-2.2-1.4-3.6c0-1.4,0.5-2.6,1.5-3.5c1-0.9,2.4-1.3,4.3-1.3h4.4v-1.2c0-1.1-0.3-1.9-0.9-2.4c-0.6-0.5-1.5-0.8-2.8-0.8
			c-0.9,0-1.6,0.1-2.2,0.3c-0.5,0.2-1,0.7-1.5,1.3l-2.2-2.1c0.8-0.9,1.6-1.5,2.5-1.9c0.9-0.4,2.1-0.5,3.5-0.5c4.6,0,6.9,1.9,6.9,5.7
			v11.2H72.2z M72.2,53h-3.9c-2,0-3,0.8-3,2.4c0,1.6,1,2.4,3.1,2.4c0.8,0,1.4-0.1,1.8-0.2c0.4-0.1,0.9-0.4,1.3-0.8
			c0.5-0.4,0.7-1.3,0.7-2.4V53z"/>
		<path class="st0" d="M88.9,60.4v-1.8c-0.6,0.7-1.2,1.2-1.9,1.5c-0.7,0.3-1.5,0.4-2.5,0.4c-0.8,0-1.6-0.1-2.3-0.4
			c-0.7-0.3-1.4-0.7-2-1.3c-0.6-0.6-1-1.5-1.3-2.7c-0.3-1.2-0.4-2.6-0.4-4.1c0-2.1,0.2-3.6,0.5-4.6c0.3-1,0.9-1.9,1.7-2.7
			c0.8-0.8,2-1.2,3.8-1.2c0.9,0,1.8,0.1,2.5,0.4c0.7,0.3,1.3,0.8,1.9,1.5V37h3.3v23.4H88.9z M85.4,46.5c-1.4,0-2.3,0.5-2.8,1.5
			c-0.5,1-0.7,2.3-0.7,4.1c0,1.8,0.2,3.1,0.7,4.1c0.5,1,1.4,1.4,2.8,1.4c1.4,0,2.3-0.5,2.8-1.4c0.5-1,0.7-2.3,0.7-4.1
			c0-1.8-0.2-3.1-0.7-4.1C87.7,47,86.8,46.5,85.4,46.5z"/>
	</g>
	<g>
		<path class="st1" d="M105.1,36C105.1,36,105.1,36,105.1,36l-9.4-9.4c0,0,0-0.1,0-0.1v-1.2c0-0.1,0.1-0.1,0.1-0.1h5.8
			c0,0,0.1,0,0.1,0l10.5,10.5c0,0,0,0.1,0,0.1c0,0-0.1,0.1-0.1,0.1H105.1z M135.8,48.7l11.4,11.4c0,0,0,0.1,0,0.1
			c0,0-0.1,0.1-0.1,0.1h-2.3c0,0-0.1,0-0.1,0l-4.5-4.5h-1c0,0-0.1,0-0.1,0l-6.9-6.9c0,0,0-0.1,0-0.1c0,0,0.1-0.1,0.1-0.1L135.8,48.7
			C135.7,48.6,135.8,48.6,135.8,48.7z"/>
		<path class="st0" d="M144.8,41.2L144.8,41.2l-4.1-4.1c0,0-0.1,0-0.1,0h-4.9l-20.8-20.8c0,0,0,0-0.1,0h-4.9c-0.1,0-0.1,0-0.1,0.1
			v1.9c0,0,0,0.1,0,0.1l18.8,18.8h-1.4l-25.5-25.5c0,0-0.1,0-0.1,0h-9.2c-0.1,0-0.1,0.1-0.1,0.1V14c0,0,0,0.1,0,0.1l23,23H99.4
			c-0.1,0-0.1,0.1-0.1,0.1v2.3c0,0,0,0.1,0,0.1l1.1,1.1h5.1l0,0.6h-5.1v0.6c0,0,0,0.1,0,0.1l9.2,9.2c0,0,0.1,0,0.1,0h0.9l3.4-3.4
			v0.8l-2.9,2.9l0.8,0.8c0,0,0.1,0,0.1,0h2.3c0,0,0.1,0,0.1,0l6.7-6.7v0.8l-1.1,1.1c0,0,0,0.1,0,0.1c0,0,0,0.1,0,0.1l6.9,6.9
			c0,0,0.1,0,0.1,0h6.9l4.3,4.3c0,0,0.1,0,0.1,0h2.3c0.1,0,0.1,0,0.1-0.1c0,0,0,0,0,0c0,0,0-0.1,0-0.1l-11-11h10.4l2.3,2.3l5.1,0.1
			l0.1,2l1.9-1.6V46L144.8,41.2z M147.8,47.3l-0.3-0.3c0,0,0-0.4,0-0.4l-0.9,0.1c0,0,0,0-0.1,0l-0.7-0.7l0.4-0.6c0,0,0,0,0,0
			l-1.2-1.2l0.6,0l2.2,2.2C147.8,46.2,147.8,47.3,147.8,47.3z"/>
	</g>
</g>
</svg>
